<mxfile host="app.diagrams.net" modified="2023-05-02T09:52:59.140Z" agent="Mozilla/5.0 (Windows NT 10.0; Win64; x64) AppleWebKit/537.36 (KHTML, like Gecko) Chrome/110.0.0.0 YaBrowser/23.3.2.806 Yowser/2.5 Safari/537.36" etag="1x-OYdzAQQSfU4ACFLjH" version="21.2.4" type="device">
  <diagram name="Страница 1" id="JBeUWRfRqJJ0WBKEf-3U">
    <mxGraphModel dx="1434" dy="1936" grid="1" gridSize="10" guides="1" tooltips="1" connect="1" arrows="1" fold="1" page="1" pageScale="1" pageWidth="827" pageHeight="1169" math="0" shadow="0">
      <root>
        <mxCell id="0" />
        <mxCell id="1" parent="0" />
        <mxCell id="4BsJwyXS73tuEb9GQIwA-14" value="" style="whiteSpace=wrap;html=1;aspect=fixed;" vertex="1" parent="1">
          <mxGeometry x="210" y="-79" width="980" height="980" as="geometry" />
        </mxCell>
        <mxCell id="4BsJwyXS73tuEb9GQIwA-2" value="Не авторизованный&lt;br&gt;Пользователь&lt;br&gt;(гость)" style="shape=umlActor;verticalLabelPosition=bottom;verticalAlign=top;html=1;outlineConnect=0;" vertex="1" parent="1">
          <mxGeometry x="100" y="220" width="30" height="60" as="geometry" />
        </mxCell>
        <mxCell id="4BsJwyXS73tuEb9GQIwA-7" value="Авторизованный&lt;br&gt;Пользователь&lt;br&gt;(автор)" style="shape=umlActor;verticalLabelPosition=bottom;verticalAlign=top;html=1;outlineConnect=0;" vertex="1" parent="1">
          <mxGeometry x="100" y="480" width="30" height="60" as="geometry" />
        </mxCell>
        <mxCell id="4BsJwyXS73tuEb9GQIwA-10" value="Ввод данных пользователя" style="rounded=0;whiteSpace=wrap;html=1;" vertex="1" parent="1">
          <mxGeometry x="460" y="100" width="120" height="60" as="geometry" />
        </mxCell>
        <mxCell id="4BsJwyXS73tuEb9GQIwA-11" value="Регистрация" style="ellipse;whiteSpace=wrap;html=1;fontStyle=1" vertex="1" parent="1">
          <mxGeometry x="450" y="220" width="140" height="70" as="geometry" />
        </mxCell>
        <mxCell id="4BsJwyXS73tuEb9GQIwA-12" value="Авторизация" style="ellipse;whiteSpace=wrap;html=1;fontStyle=1" vertex="1" parent="1">
          <mxGeometry x="450" y="475" width="140" height="70" as="geometry" />
        </mxCell>
        <mxCell id="4BsJwyXS73tuEb9GQIwA-15" value="" style="endArrow=none;dashed=1;html=1;strokeWidth=1;rounded=0;entryX=0.5;entryY=1;entryDx=0;entryDy=0;exitX=0.5;exitY=0;exitDx=0;exitDy=0;" edge="1" parent="1" source="4BsJwyXS73tuEb9GQIwA-11" target="4BsJwyXS73tuEb9GQIwA-10">
          <mxGeometry width="50" height="50" relative="1" as="geometry">
            <mxPoint x="370" y="240" as="sourcePoint" />
            <mxPoint x="420" y="190" as="targetPoint" />
          </mxGeometry>
        </mxCell>
        <mxCell id="4BsJwyXS73tuEb9GQIwA-17" value="include" style="edgeLabel;html=1;align=center;verticalAlign=middle;resizable=0;points=[];" vertex="1" connectable="0" parent="4BsJwyXS73tuEb9GQIwA-15">
          <mxGeometry x="0.2888" y="-1" relative="1" as="geometry">
            <mxPoint as="offset" />
          </mxGeometry>
        </mxCell>
        <mxCell id="4BsJwyXS73tuEb9GQIwA-18" value="" style="endArrow=none;dashed=1;html=1;strokeWidth=1;rounded=0;entryX=0.5;entryY=0;entryDx=0;entryDy=0;exitX=0.5;exitY=1;exitDx=0;exitDy=0;" edge="1" parent="1" source="4BsJwyXS73tuEb9GQIwA-11" target="4BsJwyXS73tuEb9GQIwA-12">
          <mxGeometry width="50" height="50" relative="1" as="geometry">
            <mxPoint x="380" y="250" as="sourcePoint" />
            <mxPoint x="460" y="200" as="targetPoint" />
          </mxGeometry>
        </mxCell>
        <mxCell id="4BsJwyXS73tuEb9GQIwA-19" value="extend" style="edgeLabel;html=1;align=center;verticalAlign=middle;resizable=0;points=[];" vertex="1" connectable="0" parent="4BsJwyXS73tuEb9GQIwA-18">
          <mxGeometry x="0.2888" y="-1" relative="1" as="geometry">
            <mxPoint as="offset" />
          </mxGeometry>
        </mxCell>
        <mxCell id="4BsJwyXS73tuEb9GQIwA-20" value="" style="endArrow=none;html=1;rounded=0;exitX=0.5;exitY=0.5;exitDx=0;exitDy=0;exitPerimeter=0;" edge="1" parent="1" source="4BsJwyXS73tuEb9GQIwA-2">
          <mxGeometry width="50" height="50" relative="1" as="geometry">
            <mxPoint x="150" y="270" as="sourcePoint" />
            <mxPoint x="270" y="250" as="targetPoint" />
            <Array as="points">
              <mxPoint x="160" y="250" />
            </Array>
          </mxGeometry>
        </mxCell>
        <mxCell id="4BsJwyXS73tuEb9GQIwA-21" value="Администратор&amp;nbsp;&lt;br&gt;системы" style="shape=umlActor;verticalLabelPosition=bottom;verticalAlign=top;html=1;outlineConnect=0;" vertex="1" parent="1">
          <mxGeometry x="1226" y="280" width="30" height="60" as="geometry" />
        </mxCell>
        <mxCell id="4BsJwyXS73tuEb9GQIwA-24" value="" style="endArrow=none;html=1;rounded=0;exitX=0.5;exitY=0.5;exitDx=0;exitDy=0;exitPerimeter=0;entryX=0;entryY=0.5;entryDx=0;entryDy=0;" edge="1" parent="1" target="4BsJwyXS73tuEb9GQIwA-12">
          <mxGeometry width="50" height="50" relative="1" as="geometry">
            <mxPoint x="115" y="510" as="sourcePoint" />
            <mxPoint x="230" y="525" as="targetPoint" />
          </mxGeometry>
        </mxCell>
        <mxCell id="4BsJwyXS73tuEb9GQIwA-25" value="" style="endArrow=none;html=1;rounded=0;entryX=0.5;entryY=0.5;entryDx=0;entryDy=0;entryPerimeter=0;exitX=1;exitY=0.5;exitDx=0;exitDy=0;" edge="1" parent="1" source="4BsJwyXS73tuEb9GQIwA-55" target="4BsJwyXS73tuEb9GQIwA-21">
          <mxGeometry width="50" height="50" relative="1" as="geometry">
            <mxPoint x="1000" y="300" as="sourcePoint" />
            <mxPoint x="1030" y="290" as="targetPoint" />
          </mxGeometry>
        </mxCell>
        <mxCell id="4BsJwyXS73tuEb9GQIwA-26" value="Написание поста" style="ellipse;whiteSpace=wrap;html=1;" vertex="1" parent="1">
          <mxGeometry x="450" y="630" width="140" height="70" as="geometry" />
        </mxCell>
        <mxCell id="4BsJwyXS73tuEb9GQIwA-29" value="" style="endArrow=none;dashed=1;html=1;strokeWidth=1;rounded=0;entryX=0.5;entryY=1;entryDx=0;entryDy=0;exitX=0.5;exitY=0;exitDx=0;exitDy=0;verticalAlign=middle;" edge="1" parent="1" source="4BsJwyXS73tuEb9GQIwA-26" target="4BsJwyXS73tuEb9GQIwA-12">
          <mxGeometry width="50" height="50" relative="1" as="geometry">
            <mxPoint x="340" y="460" as="sourcePoint" />
            <mxPoint x="475" y="410" as="targetPoint" />
          </mxGeometry>
        </mxCell>
        <mxCell id="4BsJwyXS73tuEb9GQIwA-30" value="extend" style="edgeLabel;html=1;align=center;verticalAlign=middle;resizable=0;points=[];" vertex="1" connectable="0" parent="4BsJwyXS73tuEb9GQIwA-29">
          <mxGeometry x="0.2888" y="-1" relative="1" as="geometry">
            <mxPoint as="offset" />
          </mxGeometry>
        </mxCell>
        <mxCell id="4BsJwyXS73tuEb9GQIwA-31" value="Просмотр ленты постов" style="ellipse;whiteSpace=wrap;html=1;" vertex="1" parent="1">
          <mxGeometry x="255" y="80" width="150" height="80" as="geometry" />
        </mxCell>
        <mxCell id="4BsJwyXS73tuEb9GQIwA-32" value="Просмотр страницы с детальной информацией по посту" style="ellipse;whiteSpace=wrap;html=1;" vertex="1" parent="1">
          <mxGeometry x="244" y="350" width="170" height="80" as="geometry" />
        </mxCell>
        <mxCell id="4BsJwyXS73tuEb9GQIwA-33" value="" style="endArrow=none;dashed=1;html=1;strokeWidth=1;rounded=0;entryX=0;entryY=0.5;entryDx=0;entryDy=0;exitX=1;exitY=0.5;exitDx=0;exitDy=0;" edge="1" parent="1" source="4BsJwyXS73tuEb9GQIwA-36" target="4BsJwyXS73tuEb9GQIwA-11">
          <mxGeometry width="50" height="50" relative="1" as="geometry">
            <mxPoint x="440" y="650" as="sourcePoint" />
            <mxPoint x="590" y="610" as="targetPoint" />
          </mxGeometry>
        </mxCell>
        <mxCell id="4BsJwyXS73tuEb9GQIwA-34" value="include" style="edgeLabel;html=1;align=center;verticalAlign=middle;resizable=0;points=[];" vertex="1" connectable="0" parent="4BsJwyXS73tuEb9GQIwA-33">
          <mxGeometry x="0.2888" y="-1" relative="1" as="geometry">
            <mxPoint x="-12" y="-1" as="offset" />
          </mxGeometry>
        </mxCell>
        <mxCell id="4BsJwyXS73tuEb9GQIwA-36" value="&lt;span style=&quot;font-weight: normal;&quot;&gt;Главная страница&lt;/span&gt;" style="ellipse;whiteSpace=wrap;html=1;fontStyle=1" vertex="1" parent="1">
          <mxGeometry x="250" y="220" width="140" height="70" as="geometry" />
        </mxCell>
        <mxCell id="4BsJwyXS73tuEb9GQIwA-37" value="" style="endArrow=none;dashed=1;html=1;strokeWidth=1;rounded=0;entryX=0.5;entryY=1;entryDx=0;entryDy=0;exitX=0.5;exitY=0;exitDx=0;exitDy=0;" edge="1" parent="1" source="4BsJwyXS73tuEb9GQIwA-36" target="4BsJwyXS73tuEb9GQIwA-31">
          <mxGeometry width="50" height="50" relative="1" as="geometry">
            <mxPoint x="329.5" y="220" as="sourcePoint" />
            <mxPoint x="329.5" y="160" as="targetPoint" />
          </mxGeometry>
        </mxCell>
        <mxCell id="4BsJwyXS73tuEb9GQIwA-38" value="extend" style="edgeLabel;html=1;align=center;verticalAlign=middle;resizable=0;points=[];" vertex="1" connectable="0" parent="4BsJwyXS73tuEb9GQIwA-37">
          <mxGeometry x="0.2888" y="-1" relative="1" as="geometry">
            <mxPoint as="offset" />
          </mxGeometry>
        </mxCell>
        <mxCell id="4BsJwyXS73tuEb9GQIwA-39" value="" style="endArrow=none;dashed=1;html=1;strokeWidth=1;rounded=0;exitX=0.5;exitY=0;exitDx=0;exitDy=0;entryX=0.5;entryY=1;entryDx=0;entryDy=0;" edge="1" parent="1" source="4BsJwyXS73tuEb9GQIwA-32" target="4BsJwyXS73tuEb9GQIwA-36">
          <mxGeometry width="50" height="50" relative="1" as="geometry">
            <mxPoint x="329.5" y="340" as="sourcePoint" />
            <mxPoint x="329.5" y="280" as="targetPoint" />
          </mxGeometry>
        </mxCell>
        <mxCell id="4BsJwyXS73tuEb9GQIwA-40" value="extend" style="edgeLabel;html=1;align=center;verticalAlign=middle;resizable=0;points=[];" vertex="1" connectable="0" parent="4BsJwyXS73tuEb9GQIwA-39">
          <mxGeometry x="0.2888" y="-1" relative="1" as="geometry">
            <mxPoint as="offset" />
          </mxGeometry>
        </mxCell>
        <mxCell id="4BsJwyXS73tuEb9GQIwA-45" value="" style="endArrow=none;dashed=1;html=1;rounded=0;entryX=1;entryY=1;entryDx=0;entryDy=0;exitX=0.5;exitY=0;exitDx=0;exitDy=0;strokeWidth=1;" edge="1" parent="1" source="4BsJwyXS73tuEb9GQIwA-31" target="4BsJwyXS73tuEb9GQIwA-12">
          <mxGeometry width="50" height="50" relative="1" as="geometry">
            <mxPoint x="570" y="400" as="sourcePoint" />
            <mxPoint x="620" y="350" as="targetPoint" />
            <Array as="points">
              <mxPoint x="710" y="80" />
              <mxPoint x="710" y="540" />
            </Array>
          </mxGeometry>
        </mxCell>
        <mxCell id="4BsJwyXS73tuEb9GQIwA-46" value="extend" style="edgeLabel;html=1;align=center;verticalAlign=middle;resizable=0;points=[];" vertex="1" connectable="0" parent="4BsJwyXS73tuEb9GQIwA-45">
          <mxGeometry x="0.8949" y="-1" relative="1" as="geometry">
            <mxPoint as="offset" />
          </mxGeometry>
        </mxCell>
        <mxCell id="4BsJwyXS73tuEb9GQIwA-47" value="" style="endArrow=none;dashed=1;html=1;rounded=0;entryX=0;entryY=1;entryDx=0;entryDy=0;strokeWidth=1;exitX=0.5;exitY=1;exitDx=0;exitDy=0;" edge="1" parent="1" source="4BsJwyXS73tuEb9GQIwA-32" target="4BsJwyXS73tuEb9GQIwA-12">
          <mxGeometry width="50" height="50" relative="1" as="geometry">
            <mxPoint x="341" y="434" as="sourcePoint" />
            <mxPoint x="490" y="540" as="targetPoint" />
            <Array as="points">
              <mxPoint x="370" y="480" />
              <mxPoint x="370" y="540" />
            </Array>
          </mxGeometry>
        </mxCell>
        <mxCell id="4BsJwyXS73tuEb9GQIwA-48" value="extend" style="edgeLabel;html=1;align=center;verticalAlign=middle;resizable=0;points=[];" vertex="1" connectable="0" parent="4BsJwyXS73tuEb9GQIwA-47">
          <mxGeometry x="0.8949" y="-1" relative="1" as="geometry">
            <mxPoint x="-38" as="offset" />
          </mxGeometry>
        </mxCell>
        <mxCell id="4BsJwyXS73tuEb9GQIwA-49" value="Редактирование поста и удаление поста" style="ellipse;whiteSpace=wrap;html=1;" vertex="1" parent="1">
          <mxGeometry x="230" y="585" width="170" height="80" as="geometry" />
        </mxCell>
        <mxCell id="4BsJwyXS73tuEb9GQIwA-50" value="Написание комментариев на любой пост" style="ellipse;whiteSpace=wrap;html=1;" vertex="1" parent="1">
          <mxGeometry x="650" y="585" width="170" height="80" as="geometry" />
        </mxCell>
        <mxCell id="4BsJwyXS73tuEb9GQIwA-51" value="" style="endArrow=none;dashed=1;html=1;rounded=0;entryX=0.5;entryY=1;entryDx=0;entryDy=0;strokeWidth=1;exitX=0.5;exitY=0;exitDx=0;exitDy=0;" edge="1" parent="1" source="4BsJwyXS73tuEb9GQIwA-49" target="4BsJwyXS73tuEb9GQIwA-12">
          <mxGeometry width="50" height="50" relative="1" as="geometry">
            <mxPoint x="318" y="520" as="sourcePoint" />
            <mxPoint x="460" y="625" as="targetPoint" />
            <Array as="points">
              <mxPoint x="359" y="570" />
              <mxPoint x="440" y="590" />
            </Array>
          </mxGeometry>
        </mxCell>
        <mxCell id="4BsJwyXS73tuEb9GQIwA-52" value="extend" style="edgeLabel;html=1;align=center;verticalAlign=middle;resizable=0;points=[];" vertex="1" connectable="0" parent="4BsJwyXS73tuEb9GQIwA-51">
          <mxGeometry x="0.8949" y="-1" relative="1" as="geometry">
            <mxPoint x="-38" as="offset" />
          </mxGeometry>
        </mxCell>
        <mxCell id="4BsJwyXS73tuEb9GQIwA-53" value="" style="endArrow=none;dashed=1;html=1;rounded=0;entryX=0.5;entryY=1;entryDx=0;entryDy=0;strokeWidth=1;exitX=0.5;exitY=0;exitDx=0;exitDy=0;" edge="1" parent="1">
          <mxGeometry width="50" height="50" relative="1" as="geometry">
            <mxPoint x="725" y="585" as="sourcePoint" />
            <mxPoint x="520" y="545" as="targetPoint" />
            <Array as="points">
              <mxPoint x="681" y="570" />
              <mxPoint x="600" y="590" />
            </Array>
          </mxGeometry>
        </mxCell>
        <mxCell id="4BsJwyXS73tuEb9GQIwA-54" value="extend" style="edgeLabel;html=1;align=center;verticalAlign=middle;resizable=0;points=[];rotation=0;" vertex="1" connectable="0" parent="4BsJwyXS73tuEb9GQIwA-53">
          <mxGeometry x="0.8949" y="-1" relative="1" as="geometry">
            <mxPoint x="24" as="offset" />
          </mxGeometry>
        </mxCell>
        <mxCell id="4BsJwyXS73tuEb9GQIwA-55" value="Права администратора" style="ellipse;whiteSpace=wrap;html=1;fontStyle=1" vertex="1" parent="1">
          <mxGeometry x="790" y="270" width="160" height="80" as="geometry" />
        </mxCell>
        <mxCell id="4BsJwyXS73tuEb9GQIwA-65" value="Удаление любого поста" style="ellipse;whiteSpace=wrap;html=1;" vertex="1" parent="1">
          <mxGeometry x="740" y="440" width="170" height="80" as="geometry" />
        </mxCell>
        <mxCell id="4BsJwyXS73tuEb9GQIwA-66" value="" style="endArrow=none;dashed=1;html=1;strokeWidth=1;rounded=0;entryX=0.5;entryY=1;entryDx=0;entryDy=0;exitX=0.5;exitY=0;exitDx=0;exitDy=0;" edge="1" parent="1" source="4BsJwyXS73tuEb9GQIwA-65" target="4BsJwyXS73tuEb9GQIwA-55">
          <mxGeometry width="50" height="50" relative="1" as="geometry">
            <mxPoint x="927" y="450" as="sourcePoint" />
            <mxPoint x="940" y="380" as="targetPoint" />
          </mxGeometry>
        </mxCell>
        <mxCell id="4BsJwyXS73tuEb9GQIwA-72" value="extend" style="edgeLabel;html=1;align=center;verticalAlign=middle;resizable=0;points=[];" vertex="1" connectable="0" parent="4BsJwyXS73tuEb9GQIwA-66">
          <mxGeometry x="0.1945" y="1" relative="1" as="geometry">
            <mxPoint as="offset" />
          </mxGeometry>
        </mxCell>
        <mxCell id="4BsJwyXS73tuEb9GQIwA-73" value="Блокировка входа пользователя в систему" style="ellipse;whiteSpace=wrap;html=1;" vertex="1" parent="1">
          <mxGeometry x="785" y="90" width="170" height="80" as="geometry" />
        </mxCell>
        <mxCell id="4BsJwyXS73tuEb9GQIwA-74" value="" style="endArrow=none;dashed=1;html=1;strokeWidth=1;rounded=0;exitX=0.5;exitY=0;exitDx=0;exitDy=0;entryX=0.5;entryY=1;entryDx=0;entryDy=0;" edge="1" parent="1" source="4BsJwyXS73tuEb9GQIwA-55" target="4BsJwyXS73tuEb9GQIwA-73">
          <mxGeometry width="50" height="50" relative="1" as="geometry">
            <mxPoint x="924.5" y="280" as="sourcePoint" />
            <mxPoint x="890" y="190" as="targetPoint" />
          </mxGeometry>
        </mxCell>
        <mxCell id="4BsJwyXS73tuEb9GQIwA-75" value="extend" style="edgeLabel;html=1;align=center;verticalAlign=middle;resizable=0;points=[];" vertex="1" connectable="0" parent="4BsJwyXS73tuEb9GQIwA-74">
          <mxGeometry x="0.1945" y="1" relative="1" as="geometry">
            <mxPoint as="offset" />
          </mxGeometry>
        </mxCell>
        <mxCell id="4BsJwyXS73tuEb9GQIwA-77" value="Просмотр ленты постов" style="ellipse;whiteSpace=wrap;html=1;" vertex="1" parent="1">
          <mxGeometry x="1000" y="170" width="150" height="80" as="geometry" />
        </mxCell>
        <mxCell id="4BsJwyXS73tuEb9GQIwA-78" value="" style="endArrow=none;dashed=1;html=1;strokeWidth=1;rounded=0;entryX=0;entryY=1;entryDx=0;entryDy=0;exitX=1;exitY=0;exitDx=0;exitDy=0;" edge="1" parent="1" source="4BsJwyXS73tuEb9GQIwA-55" target="4BsJwyXS73tuEb9GQIwA-77">
          <mxGeometry width="50" height="50" relative="1" as="geometry">
            <mxPoint x="930" y="280" as="sourcePoint" />
            <mxPoint x="980" y="230" as="targetPoint" />
            <Array as="points" />
          </mxGeometry>
        </mxCell>
        <mxCell id="4BsJwyXS73tuEb9GQIwA-79" value="extend" style="edgeLabel;html=1;align=center;verticalAlign=middle;resizable=0;points=[];" vertex="1" connectable="0" parent="4BsJwyXS73tuEb9GQIwA-78">
          <mxGeometry x="-0.2336" y="-2" relative="1" as="geometry">
            <mxPoint as="offset" />
          </mxGeometry>
        </mxCell>
        <mxCell id="4BsJwyXS73tuEb9GQIwA-80" value="Просмотр страницы с детальной информацией по посту" style="ellipse;whiteSpace=wrap;html=1;" vertex="1" parent="1">
          <mxGeometry x="1000" y="465" width="170" height="80" as="geometry" />
        </mxCell>
        <mxCell id="4BsJwyXS73tuEb9GQIwA-81" value="" style="endArrow=none;dashed=1;html=1;strokeWidth=1;rounded=0;entryX=0.965;entryY=0.708;entryDx=0;entryDy=0;entryPerimeter=0;" edge="1" parent="1" source="4BsJwyXS73tuEb9GQIwA-80" target="4BsJwyXS73tuEb9GQIwA-55">
          <mxGeometry width="50" height="50" relative="1" as="geometry">
            <mxPoint x="494" y="360" as="sourcePoint" />
            <mxPoint x="950" y="320" as="targetPoint" />
            <Array as="points" />
          </mxGeometry>
        </mxCell>
        <mxCell id="4BsJwyXS73tuEb9GQIwA-82" value="extend" style="edgeLabel;html=1;align=center;verticalAlign=middle;resizable=0;points=[];" vertex="1" connectable="0" parent="4BsJwyXS73tuEb9GQIwA-81">
          <mxGeometry x="0.4951" y="-2" relative="1" as="geometry">
            <mxPoint x="20" y="19" as="offset" />
          </mxGeometry>
        </mxCell>
        <mxCell id="4BsJwyXS73tuEb9GQIwA-83" value="Просмотр списка пользователей в системе" style="ellipse;whiteSpace=wrap;html=1;" vertex="1" parent="1">
          <mxGeometry x="870" y="570" width="160" height="80" as="geometry" />
        </mxCell>
        <mxCell id="4BsJwyXS73tuEb9GQIwA-84" value="" style="endArrow=none;dashed=1;html=1;strokeWidth=1;rounded=0;entryX=0.965;entryY=0.708;entryDx=0;entryDy=0;exitX=0.5;exitY=0;exitDx=0;exitDy=0;entryPerimeter=0;" edge="1" parent="1" source="4BsJwyXS73tuEb9GQIwA-83">
          <mxGeometry width="50" height="50" relative="1" as="geometry">
            <mxPoint x="956" y="403" as="sourcePoint" />
            <mxPoint x="910" y="340" as="targetPoint" />
            <Array as="points" />
          </mxGeometry>
        </mxCell>
        <mxCell id="4BsJwyXS73tuEb9GQIwA-85" value="extend" style="edgeLabel;html=1;align=center;verticalAlign=middle;resizable=0;points=[];" vertex="1" connectable="0" parent="4BsJwyXS73tuEb9GQIwA-84">
          <mxGeometry x="0.4951" y="-2" relative="1" as="geometry">
            <mxPoint x="8" y="19" as="offset" />
          </mxGeometry>
        </mxCell>
      </root>
    </mxGraphModel>
  </diagram>
</mxfile>
